<?xml version="1.0" encoding="UTF-8" standalone="no"?>
<svg
   xmlns:dc="http://purl.org/dc/elements/1.1/"
   xmlns:cc="http://creativecommons.org/ns#"
   xmlns:rdf="http://www.w3.org/1999/02/22-rdf-syntax-ns#"
   xmlns:svg="http://www.w3.org/2000/svg"
   xmlns="http://www.w3.org/2000/svg"
   xmlns:sodipodi="http://sodipodi.sourceforge.net/DTD/sodipodi-0.dtd"
   xmlns:inkscape="http://www.inkscape.org/namespaces/inkscape"
   viewBox="0 0 348 348"
   fill="none"
   stroke-linecap="square"
   stroke-miterlimit="10"
   version="1.1"
   id="svg44"
   sodipodi:docname="Logic Statement.svg"
   inkscape:version="0.92.4 (5da689c313, 2019-01-14)">
  <metadata
     id="metadata50">
    <rdf:RDF>
      <cc:Work
         rdf:about="">
        <dc:format>image/svg+xml</dc:format>
        <dc:type
           rdf:resource="http://purl.org/dc/dcmitype/StillImage" />
      </cc:Work>
    </rdf:RDF>
  </metadata>
  <defs
     id="defs48" />
  <sodipodi:namedview
     pagecolor="#ffffff"
     bordercolor="#666666"
     borderopacity="1"
     objecttolerance="10"
     gridtolerance="10"
     guidetolerance="10"
     inkscape:pageopacity="0"
     inkscape:pageshadow="2"
     inkscape:window-width="1366"
     inkscape:window-height="705"
     id="namedview46"
     showgrid="false"
     inkscape:zoom="0.67816092"
     inkscape:cx="-77.415254"
     inkscape:cy="116.18818"
     inkscape:window-x="-8"
     inkscape:window-y="-8"
     inkscape:window-maximized="1"
     inkscape:current-layer="svg44" />
  <path
     d="M5.08 5.78h336.91v337.67H5.08z"
     stroke="#000"
     stroke-width="2"
     stroke-linecap="butt"
     stroke-linejoin="round"
     id="path2" />
  <path
     d="M133.84 15.67h74.33v56.88h-74.33z"
     fill="#000"
     id="path4" />
  <path
     d="M15.26 17.7h109.9v54.84H15.25z"
     stroke="#000"
     stroke-width="2"
     stroke-linecap="butt"
     stroke-linejoin="round"
     id="path8" />
  <path
     d="M15.26 72.65l39.69-54.08"
     id="path10" />
  <path
     d="M15.26 72.65l39.69-54.08"
     stroke="#000"
     stroke-width="2"
     stroke-linecap="butt"
     stroke-linejoin="round"
     id="path12" />
  <path
     d="M37.57 72.65l39.68-54.08"
     id="path14" />
  <path
     d="M37.57 72.65l39.68-54.08"
     stroke="#000"
     stroke-width="2"
     stroke-linecap="butt"
     stroke-linejoin="round"
     id="path16" />
  <path
     d="M59.87 72.65l39.69-54.08"
     id="path18" />
  <path
     d="M59.87 72.65l39.69-54.08"
     stroke="#000"
     stroke-width="2"
     stroke-linecap="butt"
     stroke-linejoin="round"
     id="path20" />
  <path
     d="M82.17 72.65l39.69-54.08"
     id="path22" />
  <path
     d="M82.17 72.65l39.69-54.08m95-1.94h109.9v54.84h-109.9z"
     stroke="#000"
     stroke-width="2"
     stroke-linecap="butt"
     stroke-linejoin="round"
     id="path24" />
  <path
     d="M216.86 71.58l39.69-54.08"
     id="path26" />
  <path
     d="M216.86 71.58l39.69-54.08"
     stroke="#000"
     stroke-width="2"
     stroke-linecap="butt"
     stroke-linejoin="round"
     id="path28" />
  <path
     d="M239.17 71.58l39.68-54.08"
     id="path30" />
  <path
     d="M239.17 71.58l39.68-54.08"
     stroke="#000"
     stroke-width="2"
     stroke-linecap="butt"
     stroke-linejoin="round"
     id="path32" />
  <path
     d="M261.47 71.58l39.69-54.08"
     id="path34" />
  <path
     d="M261.47 71.58l39.69-54.08"
     stroke="#000"
     stroke-width="2"
     stroke-linecap="butt"
     stroke-linejoin="round"
     id="path36" />
  <path
     d="M283.78 71.58l39.68-54.08"
     id="path38" />
  <path
     d="M283.78 71.58l39.68-54.08"
     stroke="#000"
     stroke-width="2"
     stroke-linecap="butt"
     stroke-linejoin="round"
     id="path40" />
  <rect
     style="fill:none;fill-opacity:1;stroke:#000000;stroke-width:2.4;stroke-miterlimit:4;stroke-dasharray:none;stroke-opacity:1"
     id="rect860"
     width="309.66101"
     height="115.01695"
     x="17.694916"
     y="110.59322" />
  <rect
     style="fill:none;fill-opacity:1;stroke:#000000;stroke-width:2.4000001;stroke-miterlimit:4;stroke-dasharray:none;stroke-opacity:1"
     id="rect864"
     width="76.677963"
     height="76.677963"
     x="62.406776"
     y="247.72881" />
  <rect
     style="fill:none;fill-opacity:1;stroke:#000000;stroke-width:2.4000001;stroke-miterlimit:4;stroke-dasharray:none;stroke-opacity:1"
     id="rect864-2"
     width="76.677963"
     height="76.677963"
     x="209.16611"
     y="247.72903" />
  <g
     aria-label="28"
     style="font-style:normal;font-variant:normal;font-weight:normal;font-stretch:normal;font-size:40px;line-height:1.25;font-family:Arial;-inkscape-font-specification:'Arial, Normal';font-variant-ligatures:normal;font-variant-caps:normal;font-variant-numeric:normal;font-feature-settings:normal;text-align:start;letter-spacing:0px;word-spacing:0px;writing-mode:lr-tb;text-anchor:start;fill:#ffffff;fill-opacity:1;stroke:none"
     id="text883">
    <path
       d="m 168.76891,55.604145 v 3.378906 h -18.92579 q -0.0391,-1.269531 0.41016,-2.441406 0.72266,-1.933594 2.30469,-3.808594 1.60156,-1.875 4.60937,-4.335937 4.66797,-3.828125 6.3086,-6.054688 1.64062,-2.246093 1.64062,-4.238281 0,-2.089844 -1.5039,-3.515625 -1.48438,-1.445312 -3.88672,-1.445312 -2.53907,0 -4.0625,1.523437 -1.52344,1.523438 -1.54297,4.21875 l -3.61328,-0.371094 q 0.37109,-4.042968 2.79297,-6.152343 2.42187,-2.128907 6.5039,-2.128907 4.1211,0 6.52344,2.285157 2.40234,2.285156 2.40234,5.664062 0,1.71875 -0.70312,3.378906 -0.70313,1.660157 -2.34375,3.496094 -1.6211,1.835938 -5.41016,5.039063 -3.16406,2.65625 -4.0625,3.613281 -0.89844,0.9375 -1.48437,1.894531 z"
       style=""
       id="path877" />
    <path
       d="m 177.96812,43.455708 q -2.1875,-0.800782 -3.24218,-2.285157 -1.05469,-1.484375 -1.05469,-3.554687 0,-3.125 2.24609,-5.253906 2.2461,-2.128907 5.97657,-2.128907 3.75,0 6.03515,2.1875 2.28516,2.167969 2.28516,5.292969 0,1.992188 -1.05469,3.476563 -1.03516,1.464843 -3.16406,2.265625 2.63672,0.859375 4.0039,2.773437 1.38672,1.914063 1.38672,4.570313 0,3.671875 -2.59765,6.171875 -2.59766,2.5 -6.83594,2.5 -4.23828,0 -6.83594,-2.5 -2.59765,-2.519532 -2.59765,-6.269532 0,-2.792968 1.40625,-4.667968 1.42578,-1.894532 4.04296,-2.578125 z M 177.265,37.498676 q 0,2.03125 1.30859,3.320313 1.3086,1.289062 3.39844,1.289062 2.03125,0 3.32031,-1.269531 1.3086,-1.289062 1.3086,-3.144531 0,-1.933594 -1.34766,-3.242188 -1.32812,-1.328125 -3.32031,-1.328125 -2.01172,0 -3.33985,1.289063 -1.32812,1.289062 -1.32812,3.085937 z m -1.13281,13.222657 q 0,1.503906 0.70312,2.910156 0.72266,1.40625 2.12891,2.1875 1.40625,0.761719 3.02734,0.761719 2.51953,0 4.16016,-1.621094 1.64062,-1.621094 1.64062,-4.121094 0,-2.539062 -1.69922,-4.199219 -1.67968,-1.660156 -4.21875,-1.660156 -2.48046,0 -4.12109,1.640625 -1.62109,1.640625 -1.62109,4.101563 z"
       style=""
       id="path879" />
  </g>
  <g
     aria-label="T∧(T∨F)"
     style="font-style:normal;font-variant:normal;font-weight:normal;font-stretch:normal;font-size:60px;line-height:1.25;font-family:Gugi;-inkscape-font-specification:'Gugi, Normal';font-variant-ligatures:normal;font-variant-caps:normal;font-variant-numeric:normal;font-feature-settings:normal;text-align:start;letter-spacing:0px;word-spacing:0px;writing-mode:lr-tb;text-anchor:start;fill:#000000;fill-opacity:1;stroke:none;stroke-width:1.5"
     id="text887">
    <path
       d="m 79.415001,186.86724 q 0,2.88 -3.6,2.88 -3.54,0 -3.54,-2.88 v -39.18 h -10.5 q -2.16,0 -2.28,-3.06 0,-3 2.28,-3 h 28.14 q 2.28,0 2.16,3 0,3.06 -2.16,3.06 h -10.5 z"
       style="stroke-width:1.5"
       id="path855" />
    <path
       d="m 100.31375,189.26724 10.57617,-34.74609 h 7.32422 l 10.54688,34.74609 h -5.71289 l -8.4961,-27.53906 -8.52539,27.53906 z"
       style="stroke-width:1.5"
       id="path857" />
    <path
       d="m 151.22469,140.54724 q 2.16,-2.58 3.42,-1.92 1.38,0.84 0.48,2.52 -3.12,5.82 -4.38,12.36 -1.2,6.54 -1.2,14.58 0,7.86 1.32,14.58 1.38,6.72 4.26,12.48 0.78,1.68 -0.48,2.46 h 0.06 q -0.66,0.36 -1.56,-0.18 -0.9,-0.48 -1.92,-1.62 -2.1,-2.82 -3.9,-6.18 -1.8,-3.36 -2.82,-6.9 -1.2,-3.66 -1.74,-7.32 -0.54,-3.66 -0.54,-7.32 0,-7.56 2.22,-14.64 2.28,-7.14 6.78,-12.9 z"
       style="stroke-width:1.5"
       id="path859" />
    <path
       d="m 179.49313,186.86724 q 0,2.88 -3.6,2.88 -3.54,0 -3.54,-2.88 v -39.18 h -10.5 q -2.16,0 -2.28,-3.06 0,-3 2.28,-3 h 28.14 q 2.28,0 2.16,3 0,3.06 -2.16,3.06 h -10.5 z"
       style="stroke-width:1.5"
       id="path861" />
    <path
       d="m 200.39188,154.52115 h 5.71289 l 8.52539,27.53906 8.49609,-27.53906 h 5.71289 l -10.54687,34.74609 h -7.32422 z"
       style="stroke-width:1.5"
       id="path863" />
    <path
       d="m 248.54281,186.74724 q 0,2.88 -3.54,2.88 -3.54,0 -3.54,-2.88 v -41.52 q 0,-1.38 0.78,-2.46 0.78,-1.14 3,-1.14 h 20.4 q 2.16,0 2.28,3 0.12,3.06 -2.28,3.06 h -17.1 z m 15.36,-22.26 q 0,1.02 -0.42,1.98 -0.36,0.9 -1.08,1.56 -0.66,0.66 -1.56,1.08 -0.9,0.36 -1.98,0.36 -2.04,0 -3.48,-1.44 -1.44,-1.44 -1.44,-3.54 0,-2.1 1.44,-3.54 1.44,-1.44 3.48,-1.44 1.08,0 1.98,0.42 0.9,0.36 1.56,1.08 0.72,0.66 1.08,1.56 0.42,0.9 0.42,1.92 z"
       style="stroke-width:1.5"
       id="path865" />
    <path
       d="m 286.44969,168.08724 q 0,7.26 -2.28,14.64 -1.08,3.6 -2.88,6.9 -1.74,3.3 -3.96,6.18 -2.04,2.64 -3.36,1.8 -0.66,-0.42 -0.84,-1.02 -0.12,-0.54 0.36,-1.44 3.06,-5.88 4.26,-12.42 1.26,-6.6 1.26,-14.64 0,-8.04 -1.2,-14.58 -1.2,-6.54 -4.32,-12.36 -0.9,-1.74 0.48,-2.52 0.66,-0.42 1.5,0.12 0.84,0.54 1.86,1.8 4.56,5.76 6.84,12.9 2.28,7.08 2.28,14.64 z"
       style="stroke-width:1.5"
       id="path867" />
  </g>
  <g
     aria-label="T"
     style="font-style:normal;font-variant:normal;font-weight:normal;font-stretch:normal;font-size:60px;line-height:1.25;font-family:Gugi;-inkscape-font-specification:'Gugi, Normal';font-variant-ligatures:normal;font-variant-caps:normal;font-variant-numeric:normal;font-feature-settings:normal;text-align:start;letter-spacing:0px;word-spacing:0px;writing-mode:lr-tb;text-anchor:start;fill:#000000;fill-opacity:1;stroke:none;stroke-width:1.5"
     id="text872">
    <path
       d="m 103.19069,307.07015 q 0,2.88 -3.600001,2.88 -3.54,0 -3.54,-2.88 v -39.18 h -10.5 q -2.16,0 -2.28,-3.06 0,-3 2.28,-3 h 28.140001 q 2.28,0 2.16,3 0,3.06 -2.16,3.06 h -10.5 z"
       style="stroke-width:1.5"
       id="path874" />
  </g>
  <g
     aria-label="F"
     style="font-style:normal;font-variant:normal;font-weight:normal;font-stretch:normal;font-size:60px;line-height:1.25;font-family:Gugi;-inkscape-font-specification:'Gugi, Normal';font-variant-ligatures:normal;font-variant-caps:normal;font-variant-numeric:normal;font-feature-settings:normal;text-align:start;letter-spacing:0px;word-spacing:0px;writing-mode:lr-tb;text-anchor:start;fill:#000000;fill-opacity:1;stroke:none;stroke-width:1.5"
     id="text884">
    <path
       d="m 240.9938,307.07 q 0,2.88 -3.54,2.88 -3.54,0 -3.54,-2.88 v -41.52 q 0,-1.38 0.78,-2.46 0.78,-1.14 3,-1.14 h 20.4 q 2.16,0 2.28,3 0.12,3.06 -2.28,3.06 h -17.1 z m 15.36,-22.26 q 0,1.02 -0.42,1.98 -0.36,0.9 -1.08,1.56 -0.66,0.66 -1.56,1.08 -0.9,0.36 -1.98,0.36 -2.04,0 -3.48,-1.44 -1.44,-1.44 -1.44,-3.54 0,-2.1 1.44,-3.54 1.44,-1.44 3.48,-1.44 1.08,0 1.98,0.42 0.9,0.36 1.56,1.08 0.72,0.66 1.08,1.56 0.42,0.9 0.42,1.92 z"
       style="stroke-width:1.5"
       id="path886" />
  </g>
</svg>
